<svg xmlns="http://www.w3.org/2000/svg" viewBox="0 0 1440 320">
  <defs>
    <linearGradient id="gradient" x1="0%" y1="0%" x2="100%" y2="0%">
      <stop offset="0%" style="stop-color:#24292e;stop-opacity:1" />
      <stop offset="100%" style="stop-color:#373f47;stop-opacity:1" />
    </linearGradient>
  </defs>
  <path id="wave" fill="url(#gradient)" fill-opacity="1" d="M0,192L40,197.3C80,203,160,213,240,208C320,203,400,181,480,160C560,139,640,117,720,122.7C800,128,880,160,960,165.3C1040,171,1120,149,1200,144C1280,139,1360,149,1400,154.7L1440,160L1440,320L1400,320C1360,320,1280,320,1200,320C1120,320,1040,320,960,320C880,320,800,320,720,320C640,320,560,320,480,320C400,320,320,320,240,320C160,320,80,320,40,320L0,320Z"></path>
  <animateTransform attributeName="transform" attributeType="XML" type="translate"
    values="0; -50; 0"
    begin="0s" dur="6s" repeatCount="indefinite" />
</svg>
